<?xml version="1.0" encoding="us-ascii" standalone="no"?><svg xmlns="http://www.w3.org/2000/svg" xmlns:xlink="http://www.w3.org/1999/xlink" contentStyleType="text/css" height="755px" preserveAspectRatio="none" style="width:1861px;height:755px;background:#FFFFFF;" version="1.1" viewBox="0 0 1861 755" width="1861px" zoomAndPan="magnify"><defs/><g><text fill="#000000" font-family="sans-serif" font-size="14" font-weight="bold" lengthAdjust="spacing" textLength="445.875" x="700.5625" y="24.5332">MVP-&#1089;&#1080;&#1089;&#1090;&#1077;&#1084;&#1072; &#1089;&#1074;&#1080;&#1085;&#1086;&#1092;&#1077;&#1088;&#1084; &#8212; &#1040;&#1083;&#1100;&#1090;&#1077;&#1088;&#1085;&#1072;&#1090;&#1080;&#1074;&#1085;&#1099;&#1081; &#1074;&#1072;&#1088;&#1080;&#1072;&#1085;&#1090; &#8212; Code</text><!--cluster alternativeCentral--><g id="cluster_alternativeCentral"><path d="M8.5,305.6094 L304.5,305.6094 A3.75,3.75 0 0 1 307,308.1094 L314,329.2188 L1306.5,329.2188 A2.5,2.5 0 0 1 1309,331.7188 L1309,585.1094 A2.5,2.5 0 0 1 1306.5,587.6094 L8.5,587.6094 A2.5,2.5 0 0 1 6,585.1094 L6,308.1094 A2.5,2.5 0 0 1 8.5,305.6094 " fill="none" style="stroke:#000000;stroke-width:1.5;"/><line style="stroke:#000000;stroke-width:1.5;" x1="6" x2="314" y1="329.2188" y2="329.2188"/><text fill="#000000" font-family="sans-serif" font-size="14" font-weight="bold" lengthAdjust="spacing" textLength="295" x="10" y="322.1426">&#1040;&#1083;&#1100;&#1090;&#1077;&#1088;&#1085;&#1072;&#1090;&#1080;&#1074;&#1085;&#1072;&#1103; &#1062;&#1077;&#1085;&#1090;&#1088;&#1072;&#1083;&#1100;&#1085;&#1072;&#1103; &#1087;&#1083;&#1072;&#1090;&#1092;&#1086;&#1088;&#1084;&#1072;</text></g><!--cluster counterparts--><g id="cluster_counterparts"><path d="M240.5,637.6094 L577.5,637.6094 A3.75,3.75 0 0 1 580,640.1094 L587,661.2188 L1252.5,661.2188 A2.5,2.5 0 0 1 1255,663.7188 L1255,746.1094 A2.5,2.5 0 0 1 1252.5,748.6094 L240.5,748.6094 A2.5,2.5 0 0 1 238,746.1094 L238,640.1094 A2.5,2.5 0 0 1 240.5,637.6094 " fill="none" style="stroke:#000000;stroke-width:1.5;"/><line style="stroke:#000000;stroke-width:1.5;" x1="238" x2="587" y1="661.2188" y2="661.2188"/><text fill="#000000" font-family="sans-serif" font-size="14" font-weight="bold" lengthAdjust="spacing" textLength="336" x="242" y="654.1426">&#1055;&#1086;&#1082;&#1072;&#1079;&#1072;&#1085;&#1085;&#1099;&#1077; &#1089;&#1086;&#1086;&#1090;&#1074;&#1077;&#1090;&#1089;&#1090;&#1074;&#1080;&#1103; &#1086;&#1089;&#1085;&#1086;&#1074;&#1085;&#1086;&#1084;&#1091; &#1074;&#1072;&#1088;&#1080;&#1072;&#1085;&#1090;&#1091;</text></g><!--class iotGatewayAdapter--><g id="elem_iotGatewayAdapter"><rect codeLine="7" fill="#F1F1F1" height="76.3125" id="iotGatewayAdapter" rx="2.5" ry="2.5" style="stroke:#181818;stroke-width:0.5;" width="261" x="786.5" y="341.6094"/><ellipse cx="821.3" cy="362.9609" fill="#ADD1B2" rx="11" ry="11" style="stroke:#181818;stroke-width:1.0;"/><path d="M824.0656,358.8359 Q824.2219,358.6172 824.4094,358.5078 Q824.5969,358.3984 824.8156,358.3984 Q825.1906,358.3984 825.425,358.6641 Q825.6594,358.9141 825.6594,359.5234 L825.6594,360.9766 Q825.6594,361.5859 825.425,361.8516 Q825.1906,362.1172 824.8156,362.1172 Q824.4719,362.1172 824.2688,361.9141 Q824.0656,361.7266 823.9563,361.2109 Q823.9094,360.8516 823.7219,360.6641 Q823.3938,360.2891 822.7844,360.0703 Q822.175,359.8516 821.55,359.8516 Q820.7844,359.8516 820.1438,360.1797 Q819.5188,360.5078 819.0188,361.2578 Q818.5344,362.0078 818.5344,363.0391 L818.5344,364.1328 Q818.5344,365.3672 819.425,366.1953 Q820.3156,367.0078 821.9094,367.0078 Q822.8469,367.0078 823.5031,366.7578 Q823.8938,366.6016 824.3156,366.1641 Q824.5813,365.8984 824.7219,365.8203 Q824.8781,365.7422 825.0813,365.7422 Q825.4094,365.7422 825.6594,366.0078 Q825.925,366.2578 825.925,366.6016 Q825.925,366.9453 825.5813,367.3516 Q825.0813,367.9297 824.2844,368.2578 Q823.2063,368.7109 821.9094,368.7109 Q820.3938,368.7109 819.1906,368.0859 Q818.2063,367.5859 817.5188,366.5234 Q816.8313,365.4453 816.8313,364.1641 L816.8313,363.0078 Q816.8313,361.6797 817.4406,360.5391 Q818.0656,359.3828 819.1594,358.7734 Q820.2531,358.1484 821.4875,358.1484 Q822.2219,358.1484 822.8625,358.3203 Q823.5188,358.4766 824.0656,358.8359 Z " fill="#000000"/><text fill="#000000" font-family="sans-serif" font-size="12" font-style="italic" lengthAdjust="spacing" textLength="56" x="904.2" y="359.0664">&#171;adapter&#187;</text><text fill="#000000" font-family="sans-serif" font-size="14" lengthAdjust="spacing" textLength="185" x="839.7" y="376.2363">Existing IoT Gateway Adapter</text><line style="stroke:#181818;stroke-width:0.5;" x1="787.5" x2="1046.5" y1="384.3125" y2="384.3125"/><text fill="#000000" font-family="sans-serif" font-size="14" lengthAdjust="spacing" textLength="249" x="792.5" y="402.8457">&#1040;&#1076;&#1072;&#1087;&#1090;&#1080;&#1088;&#1091;&#1077;&#1090; &#1057;&#1091;&#1097;&#1077;&#1089;&#1090;&#1074;&#1091;&#1102;&#1097;&#1080;&#1081; IoT-&#1096;&#1083;&#1102;&#1079;</text><line style="stroke:#181818;stroke-width:0.5;" x1="787.5" x2="1046.5" y1="409.9219" y2="409.9219"/></g><!--class timescaleAdapter--><g id="elem_timescaleAdapter"><rect codeLine="11" fill="#F1F1F1" height="76.3125" id="timescaleAdapter" rx="2.5" ry="2.5" style="stroke:#181818;stroke-width:0.5;" width="177" x="187.5" y="495.6094"/><ellipse cx="206.1" cy="516.9609" fill="#ADD1B2" rx="11" ry="11" style="stroke:#181818;stroke-width:1.0;"/><path d="M208.8656,512.8359 Q209.0219,512.6172 209.2094,512.5078 Q209.3969,512.3984 209.6156,512.3984 Q209.9906,512.3984 210.225,512.6641 Q210.4594,512.9141 210.4594,513.5234 L210.4594,514.9766 Q210.4594,515.5859 210.225,515.8516 Q209.9906,516.1172 209.6156,516.1172 Q209.2719,516.1172 209.0688,515.9141 Q208.8656,515.7266 208.7563,515.2109 Q208.7094,514.8516 208.5219,514.6641 Q208.1938,514.2891 207.5844,514.0703 Q206.975,513.8516 206.35,513.8516 Q205.5844,513.8516 204.9438,514.1797 Q204.3188,514.5078 203.8188,515.2578 Q203.3344,516.0078 203.3344,517.0391 L203.3344,518.1328 Q203.3344,519.3672 204.225,520.1953 Q205.1156,521.0078 206.7094,521.0078 Q207.6469,521.0078 208.3031,520.7578 Q208.6938,520.6016 209.1156,520.1641 Q209.3813,519.8984 209.5219,519.8203 Q209.6781,519.7422 209.8813,519.7422 Q210.2094,519.7422 210.4594,520.0078 Q210.725,520.2578 210.725,520.6016 Q210.725,520.9453 210.3813,521.3516 Q209.8813,521.9297 209.0844,522.2578 Q208.0063,522.7109 206.7094,522.7109 Q205.1938,522.7109 203.9906,522.0859 Q203.0063,521.5859 202.3188,520.5234 Q201.6313,519.4453 201.6313,518.1641 L201.6313,517.0078 Q201.6313,515.6797 202.2406,514.5391 Q202.8656,513.3828 203.9594,512.7734 Q205.0531,512.1484 206.2875,512.1484 Q207.0219,512.1484 207.6625,512.3203 Q208.3188,512.4766 208.8656,512.8359 Z " fill="#000000"/><text fill="#000000" font-family="sans-serif" font-size="12" font-style="italic" lengthAdjust="spacing" textLength="56" x="261.4" y="513.0664">&#171;adapter&#187;</text><text fill="#000000" font-family="sans-serif" font-size="14" lengthAdjust="spacing" textLength="137" x="220.9" y="530.2363">TimescaleDB Adapter</text><line style="stroke:#181818;stroke-width:0.5;" x1="188.5" x2="363.5" y1="538.3125" y2="538.3125"/><text fill="#000000" font-family="sans-serif" font-size="14" lengthAdjust="spacing" textLength="165" x="193.5" y="556.8457">&#1040;&#1076;&#1072;&#1087;&#1090;&#1080;&#1088;&#1091;&#1077;&#1090; TimescaleDB</text><line style="stroke:#181818;stroke-width:0.5;" x1="188.5" x2="363.5" y1="563.9219" y2="563.9219"/></g><!--class operationsService--><g id="elem_operationsService"><rect codeLine="15" fill="#F1F1F1" height="76.3125" id="operationsService" rx="2.5" ry="2.5" style="stroke:#181818;stroke-width:0.5;" width="299" x="248.5" y="341.6094"/><ellipse cx="308.25" cy="362.9609" fill="#ADD1B2" rx="11" ry="11" style="stroke:#181818;stroke-width:1.0;"/><path d="M311.0156,358.8359 Q311.1719,358.6172 311.3594,358.5078 Q311.5469,358.3984 311.7656,358.3984 Q312.1406,358.3984 312.375,358.6641 Q312.6094,358.9141 312.6094,359.5234 L312.6094,360.9766 Q312.6094,361.5859 312.375,361.8516 Q312.1406,362.1172 311.7656,362.1172 Q311.4219,362.1172 311.2188,361.9141 Q311.0156,361.7266 310.9063,361.2109 Q310.8594,360.8516 310.6719,360.6641 Q310.3438,360.2891 309.7344,360.0703 Q309.125,359.8516 308.5,359.8516 Q307.7344,359.8516 307.0938,360.1797 Q306.4688,360.5078 305.9688,361.2578 Q305.4844,362.0078 305.4844,363.0391 L305.4844,364.1328 Q305.4844,365.3672 306.375,366.1953 Q307.2656,367.0078 308.8594,367.0078 Q309.7969,367.0078 310.4531,366.7578 Q310.8438,366.6016 311.2656,366.1641 Q311.5313,365.8984 311.6719,365.8203 Q311.8281,365.7422 312.0313,365.7422 Q312.3594,365.7422 312.6094,366.0078 Q312.875,366.2578 312.875,366.6016 Q312.875,366.9453 312.5313,367.3516 Q312.0313,367.9297 311.2344,368.2578 Q310.1563,368.7109 308.8594,368.7109 Q307.3438,368.7109 306.1406,368.0859 Q305.1563,367.5859 304.4688,366.5234 Q303.7813,365.4453 303.7813,364.1641 L303.7813,363.0078 Q303.7813,361.6797 304.3906,360.5391 Q305.0156,359.3828 306.1094,358.7734 Q307.2031,358.1484 308.4375,358.1484 Q309.1719,358.1484 309.8125,358.3203 Q310.4688,358.4766 311.0156,358.8359 Z " fill="#000000"/><text fill="#000000" font-family="sans-serif" font-size="12" font-style="italic" lengthAdjust="spacing" textLength="116" x="356.25" y="359.0664">&#171;application service&#187;</text><text fill="#000000" font-family="sans-serif" font-size="14" lengthAdjust="spacing" textLength="171" x="328.75" y="376.2363">Central Operations Service</text><line style="stroke:#181818;stroke-width:0.5;" x1="249.5" x2="546.5" y1="384.3125" y2="384.3125"/><text fill="#000000" font-family="sans-serif" font-size="14" lengthAdjust="spacing" textLength="287" x="254.5" y="402.8457">&#1050;&#1086;&#1086;&#1088;&#1076;&#1080;&#1085;&#1080;&#1088;&#1091;&#1077;&#1090; &#1087;&#1086;&#1083;&#1100;&#1079;&#1086;&#1074;&#1072;&#1090;&#1077;&#1083;&#1100;&#1089;&#1082;&#1080;&#1077; &#1089;&#1094;&#1077;&#1085;&#1072;&#1088;&#1080;&#1080;</text><line style="stroke:#181818;stroke-width:0.5;" x1="249.5" x2="546.5" y1="409.9219" y2="409.9219"/></g><!--class feedDataAdapter--><g id="elem_feedDataAdapter"><rect codeLine="19" fill="#F1F1F1" height="76.3125" id="feedDataAdapter" rx="2.5" ry="2.5" style="stroke:#181818;stroke-width:0.5;" width="168" x="583" y="341.6094"/><ellipse cx="604.75" cy="362.9609" fill="#ADD1B2" rx="11" ry="11" style="stroke:#181818;stroke-width:1.0;"/><path d="M607.5156,358.8359 Q607.6719,358.6172 607.8594,358.5078 Q608.0469,358.3984 608.2656,358.3984 Q608.6406,358.3984 608.875,358.6641 Q609.1094,358.9141 609.1094,359.5234 L609.1094,360.9766 Q609.1094,361.5859 608.875,361.8516 Q608.6406,362.1172 608.2656,362.1172 Q607.9219,362.1172 607.7188,361.9141 Q607.5156,361.7266 607.4063,361.2109 Q607.3594,360.8516 607.1719,360.6641 Q606.8438,360.2891 606.2344,360.0703 Q605.625,359.8516 605,359.8516 Q604.2344,359.8516 603.5938,360.1797 Q602.9688,360.5078 602.4688,361.2578 Q601.9844,362.0078 601.9844,363.0391 L601.9844,364.1328 Q601.9844,365.3672 602.875,366.1953 Q603.7656,367.0078 605.3594,367.0078 Q606.2969,367.0078 606.9531,366.7578 Q607.3438,366.6016 607.7656,366.1641 Q608.0313,365.8984 608.1719,365.8203 Q608.3281,365.7422 608.5313,365.7422 Q608.8594,365.7422 609.1094,366.0078 Q609.375,366.2578 609.375,366.6016 Q609.375,366.9453 609.0313,367.3516 Q608.5313,367.9297 607.7344,368.2578 Q606.6563,368.7109 605.3594,368.7109 Q603.8438,368.7109 602.6406,368.0859 Q601.6563,367.5859 600.9688,366.5234 Q600.2813,365.4453 600.2813,364.1641 L600.2813,363.0078 Q600.2813,361.6797 600.8906,360.5391 Q601.5156,359.3828 602.6094,358.7734 Q603.7031,358.1484 604.9375,358.1484 Q605.6719,358.1484 606.3125,358.3203 Q606.9688,358.4766 607.5156,358.8359 Z " fill="#000000"/><text fill="#000000" font-family="sans-serif" font-size="12" font-style="italic" lengthAdjust="spacing" textLength="56" x="652.75" y="359.0664">&#171;adapter&#187;</text><text fill="#000000" font-family="sans-serif" font-size="14" lengthAdjust="spacing" textLength="121" x="620.25" y="376.2363">Feed Data Adapter</text><line style="stroke:#181818;stroke-width:0.5;" x1="584" x2="750" y1="384.3125" y2="384.3125"/><text fill="#000000" font-family="sans-serif" font-size="14" lengthAdjust="spacing" textLength="156" x="589" y="402.8457">&#1063;&#1080;&#1090;&#1072;&#1077;&#1090; &#1076;&#1072;&#1085;&#1085;&#1099;&#1077; &#1086; &#1082;&#1086;&#1088;&#1084;&#1077;</text><line style="stroke:#181818;stroke-width:0.5;" x1="584" x2="750" y1="409.9219" y2="409.9219"/></g><!--class metricsDataAdapter--><g id="elem_metricsDataAdapter"><rect codeLine="23" fill="#F1F1F1" height="76.3125" id="metricsDataAdapter" rx="2.5" ry="2.5" style="stroke:#181818;stroke-width:0.5;" width="191" x="22.5" y="341.6094"/><ellipse cx="49.2" cy="362.9609" fill="#ADD1B2" rx="11" ry="11" style="stroke:#181818;stroke-width:1.0;"/><path d="M51.9656,358.8359 Q52.1219,358.6172 52.3094,358.5078 Q52.4969,358.3984 52.7156,358.3984 Q53.0906,358.3984 53.325,358.6641 Q53.5594,358.9141 53.5594,359.5234 L53.5594,360.9766 Q53.5594,361.5859 53.325,361.8516 Q53.0906,362.1172 52.7156,362.1172 Q52.3719,362.1172 52.1688,361.9141 Q51.9656,361.7266 51.8563,361.2109 Q51.8094,360.8516 51.6219,360.6641 Q51.2938,360.2891 50.6844,360.0703 Q50.075,359.8516 49.45,359.8516 Q48.6844,359.8516 48.0438,360.1797 Q47.4188,360.5078 46.9188,361.2578 Q46.4344,362.0078 46.4344,363.0391 L46.4344,364.1328 Q46.4344,365.3672 47.325,366.1953 Q48.2156,367.0078 49.8094,367.0078 Q50.7469,367.0078 51.4031,366.7578 Q51.7938,366.6016 52.2156,366.1641 Q52.4813,365.8984 52.6219,365.8203 Q52.7781,365.7422 52.9813,365.7422 Q53.3094,365.7422 53.5594,366.0078 Q53.825,366.2578 53.825,366.6016 Q53.825,366.9453 53.4813,367.3516 Q52.9813,367.9297 52.1844,368.2578 Q51.1063,368.7109 49.8094,368.7109 Q48.2938,368.7109 47.0906,368.0859 Q46.1063,367.5859 45.4188,366.5234 Q44.7313,365.4453 44.7313,364.1641 L44.7313,363.0078 Q44.7313,361.6797 45.3406,360.5391 Q45.9656,359.3828 47.0594,358.7734 Q48.1531,358.1484 49.3875,358.1484 Q50.1219,358.1484 50.7625,358.3203 Q51.4188,358.4766 51.9656,358.8359 Z " fill="#000000"/><text fill="#000000" font-family="sans-serif" font-size="12" font-style="italic" lengthAdjust="spacing" textLength="56" x="104.3" y="359.0664">&#171;adapter&#187;</text><text fill="#000000" font-family="sans-serif" font-size="14" lengthAdjust="spacing" textLength="133" x="65.8" y="376.2363">Metrics Data Adapter</text><line style="stroke:#181818;stroke-width:0.5;" x1="23.5" x2="212.5" y1="384.3125" y2="384.3125"/><text fill="#000000" font-family="sans-serif" font-size="14" lengthAdjust="spacing" textLength="179" x="28.5" y="402.8457">&#1063;&#1080;&#1090;&#1072;&#1077;&#1090; &#1076;&#1072;&#1085;&#1085;&#1099;&#1077; &#1076;&#1083;&#1103; &#1084;&#1077;&#1090;&#1088;&#1080;&#1082;</text><line style="stroke:#181818;stroke-width:0.5;" x1="23.5" x2="212.5" y1="409.9219" y2="409.9219"/></g><!--class archiverService--><g id="elem_archiverService"><rect codeLine="27" fill="#F1F1F1" height="76.3125" id="archiverService" rx="2.5" ry="2.5" style="stroke:#181818;stroke-width:0.5;" width="210" x="1083" y="341.6094"/><ellipse cx="1132.25" cy="362.9609" fill="#ADD1B2" rx="11" ry="11" style="stroke:#181818;stroke-width:1.0;"/><path d="M1135.0156,358.8359 Q1135.1719,358.6172 1135.3594,358.5078 Q1135.5469,358.3984 1135.7656,358.3984 Q1136.1406,358.3984 1136.375,358.6641 Q1136.6094,358.9141 1136.6094,359.5234 L1136.6094,360.9766 Q1136.6094,361.5859 1136.375,361.8516 Q1136.1406,362.1172 1135.7656,362.1172 Q1135.4219,362.1172 1135.2188,361.9141 Q1135.0156,361.7266 1134.9063,361.2109 Q1134.8594,360.8516 1134.6719,360.6641 Q1134.3438,360.2891 1133.7344,360.0703 Q1133.125,359.8516 1132.5,359.8516 Q1131.7344,359.8516 1131.0938,360.1797 Q1130.4688,360.5078 1129.9688,361.2578 Q1129.4844,362.0078 1129.4844,363.0391 L1129.4844,364.1328 Q1129.4844,365.3672 1130.375,366.1953 Q1131.2656,367.0078 1132.8594,367.0078 Q1133.7969,367.0078 1134.4531,366.7578 Q1134.8438,366.6016 1135.2656,366.1641 Q1135.5313,365.8984 1135.6719,365.8203 Q1135.8281,365.7422 1136.0313,365.7422 Q1136.3594,365.7422 1136.6094,366.0078 Q1136.875,366.2578 1136.875,366.6016 Q1136.875,366.9453 1136.5313,367.3516 Q1136.0313,367.9297 1135.2344,368.2578 Q1134.1563,368.7109 1132.8594,368.7109 Q1131.3438,368.7109 1130.1406,368.0859 Q1129.1563,367.5859 1128.4688,366.5234 Q1127.7813,365.4453 1127.7813,364.1641 L1127.7813,363.0078 Q1127.7813,361.6797 1128.3906,360.5391 Q1129.0156,359.3828 1130.1094,358.7734 Q1131.2031,358.1484 1132.4375,358.1484 Q1133.1719,358.1484 1133.8125,358.3203 Q1134.4688,358.4766 1135.0156,358.8359 Z " fill="#000000"/><text fill="#000000" font-family="sans-serif" font-size="12" font-style="italic" lengthAdjust="spacing" textLength="53" x="1177.75" y="359.0664">&#171;service&#187;</text><text fill="#000000" font-family="sans-serif" font-size="14" lengthAdjust="spacing" textLength="103" x="1152.75" y="376.2363">Archiver Service</text><line style="stroke:#181818;stroke-width:0.5;" x1="1084" x2="1292" y1="384.3125" y2="384.3125"/><text fill="#000000" font-family="sans-serif" font-size="14" lengthAdjust="spacing" textLength="198" x="1089" y="402.8457">&#1050;&#1086;&#1086;&#1088;&#1076;&#1080;&#1085;&#1080;&#1088;&#1091;&#1077;&#1090; &#1072;&#1088;&#1093;&#1080;&#1074;&#1080;&#1088;&#1086;&#1074;&#1072;&#1085;&#1080;&#1077;</text><line style="stroke:#181818;stroke-width:0.5;" x1="1084" x2="1292" y1="409.9219" y2="409.9219"/></g><!--class synchronizationService--><g id="elem_synchronizationService"><rect codeLine="33" fill="#F1F1F1" height="58.7031" id="synchronizationService" rx="2.5" ry="2.5" style="stroke:#181818;stroke-width:0.5;" width="183" x="885.5" y="673.6094"/><ellipse cx="900.5" cy="694.9609" fill="#ADD1B2" rx="11" ry="11" style="stroke:#181818;stroke-width:1.0;"/><path d="M903.2656,690.8359 Q903.4219,690.6172 903.6094,690.5078 Q903.7969,690.3984 904.0156,690.3984 Q904.3906,690.3984 904.625,690.6641 Q904.8594,690.9141 904.8594,691.5234 L904.8594,692.9766 Q904.8594,693.5859 904.625,693.8516 Q904.3906,694.1172 904.0156,694.1172 Q903.6719,694.1172 903.4688,693.9141 Q903.2656,693.7266 903.1563,693.2109 Q903.1094,692.8516 902.9219,692.6641 Q902.5938,692.2891 901.9844,692.0703 Q901.375,691.8516 900.75,691.8516 Q899.9844,691.8516 899.3438,692.1797 Q898.7188,692.5078 898.2188,693.2578 Q897.7344,694.0078 897.7344,695.0391 L897.7344,696.1328 Q897.7344,697.3672 898.625,698.1953 Q899.5156,699.0078 901.1094,699.0078 Q902.0469,699.0078 902.7031,698.7578 Q903.0938,698.6016 903.5156,698.1641 Q903.7813,697.8984 903.9219,697.8203 Q904.0781,697.7422 904.2813,697.7422 Q904.6094,697.7422 904.8594,698.0078 Q905.125,698.2578 905.125,698.6016 Q905.125,698.9453 904.7813,699.3516 Q904.2813,699.9297 903.4844,700.2578 Q902.4063,700.7109 901.1094,700.7109 Q899.5938,700.7109 898.3906,700.0859 Q897.4063,699.5859 896.7188,698.5234 Q896.0313,697.4453 896.0313,696.1641 L896.0313,695.0078 Q896.0313,693.6797 896.6406,692.5391 Q897.2656,691.3828 898.3594,690.7734 Q899.4531,690.1484 900.6875,690.1484 Q901.4219,690.1484 902.0625,690.3203 Q902.7188,690.4766 903.2656,690.8359 Z " fill="#000000"/><text fill="#000000" font-family="sans-serif" font-size="12" font-style="italic" lengthAdjust="spacing" textLength="76" x="952" y="691.0664">&#171;counterpart&#187;</text><text fill="#000000" font-family="sans-serif" font-size="14" lengthAdjust="spacing" textLength="151" x="914.5" y="708.2363">Synchronization Service</text><line style="stroke:#181818;stroke-width:0.5;" x1="886.5" x2="1067.5" y1="716.3125" y2="716.3125"/><line style="stroke:#181818;stroke-width:0.5;" x1="886.5" x2="1067.5" y1="724.3125" y2="724.3125"/></g><!--class centralStoreAdapter--><g id="elem_centralStoreAdapter"><rect codeLine="34" fill="#F1F1F1" height="58.7031" id="centralStoreAdapter" rx="2.5" ry="2.5" style="stroke:#181818;stroke-width:0.5;" width="170" x="254" y="673.6094"/><ellipse cx="269" cy="694.9609" fill="#ADD1B2" rx="11" ry="11" style="stroke:#181818;stroke-width:1.0;"/><path d="M271.7656,690.8359 Q271.9219,690.6172 272.1094,690.5078 Q272.2969,690.3984 272.5156,690.3984 Q272.8906,690.3984 273.125,690.6641 Q273.3594,690.9141 273.3594,691.5234 L273.3594,692.9766 Q273.3594,693.5859 273.125,693.8516 Q272.8906,694.1172 272.5156,694.1172 Q272.1719,694.1172 271.9688,693.9141 Q271.7656,693.7266 271.6563,693.2109 Q271.6094,692.8516 271.4219,692.6641 Q271.0938,692.2891 270.4844,692.0703 Q269.875,691.8516 269.25,691.8516 Q268.4844,691.8516 267.8438,692.1797 Q267.2188,692.5078 266.7188,693.2578 Q266.2344,694.0078 266.2344,695.0391 L266.2344,696.1328 Q266.2344,697.3672 267.125,698.1953 Q268.0156,699.0078 269.6094,699.0078 Q270.5469,699.0078 271.2031,698.7578 Q271.5938,698.6016 272.0156,698.1641 Q272.2813,697.8984 272.4219,697.8203 Q272.5781,697.7422 272.7813,697.7422 Q273.1094,697.7422 273.3594,698.0078 Q273.625,698.2578 273.625,698.6016 Q273.625,698.9453 273.2813,699.3516 Q272.7813,699.9297 271.9844,700.2578 Q270.9063,700.7109 269.6094,700.7109 Q268.0938,700.7109 266.8906,700.0859 Q265.9063,699.5859 265.2188,698.5234 Q264.5313,697.4453 264.5313,696.1641 L264.5313,695.0078 Q264.5313,693.6797 265.1406,692.5391 Q265.7656,691.3828 266.8594,690.7734 Q267.9531,690.1484 269.1875,690.1484 Q269.9219,690.1484 270.5625,690.3203 Q271.2188,690.4766 271.7656,690.8359 Z " fill="#000000"/><text fill="#000000" font-family="sans-serif" font-size="12" font-style="italic" lengthAdjust="spacing" textLength="76" x="314" y="691.0664">&#171;counterpart&#187;</text><text fill="#000000" font-family="sans-serif" font-size="14" lengthAdjust="spacing" textLength="138" x="283" y="708.2363">Central Store Adapter</text><line style="stroke:#181818;stroke-width:0.5;" x1="255" x2="423" y1="716.3125" y2="716.3125"/><line style="stroke:#181818;stroke-width:0.5;" x1="255" x2="423" y1="724.3125" y2="724.3125"/></g><!--class primaryOperationsService--><g id="elem_primaryOperationsService"><rect codeLine="35" fill="#F1F1F1" height="58.7031" id="primaryOperationsService" rx="2.5" ry="2.5" style="stroke:#181818;stroke-width:0.5;" width="203" x="459.5" y="673.6094"/><ellipse cx="474.5" cy="694.9609" fill="#ADD1B2" rx="11" ry="11" style="stroke:#181818;stroke-width:1.0;"/><path d="M477.2656,690.8359 Q477.4219,690.6172 477.6094,690.5078 Q477.7969,690.3984 478.0156,690.3984 Q478.3906,690.3984 478.625,690.6641 Q478.8594,690.9141 478.8594,691.5234 L478.8594,692.9766 Q478.8594,693.5859 478.625,693.8516 Q478.3906,694.1172 478.0156,694.1172 Q477.6719,694.1172 477.4688,693.9141 Q477.2656,693.7266 477.1563,693.2109 Q477.1094,692.8516 476.9219,692.6641 Q476.5938,692.2891 475.9844,692.0703 Q475.375,691.8516 474.75,691.8516 Q473.9844,691.8516 473.3438,692.1797 Q472.7188,692.5078 472.2188,693.2578 Q471.7344,694.0078 471.7344,695.0391 L471.7344,696.1328 Q471.7344,697.3672 472.625,698.1953 Q473.5156,699.0078 475.1094,699.0078 Q476.0469,699.0078 476.7031,698.7578 Q477.0938,698.6016 477.5156,698.1641 Q477.7813,697.8984 477.9219,697.8203 Q478.0781,697.7422 478.2813,697.7422 Q478.6094,697.7422 478.8594,698.0078 Q479.125,698.2578 479.125,698.6016 Q479.125,698.9453 478.7813,699.3516 Q478.2813,699.9297 477.4844,700.2578 Q476.4063,700.7109 475.1094,700.7109 Q473.5938,700.7109 472.3906,700.0859 Q471.4063,699.5859 470.7188,698.5234 Q470.0313,697.4453 470.0313,696.1641 L470.0313,695.0078 Q470.0313,693.6797 470.6406,692.5391 Q471.2656,691.3828 472.3594,690.7734 Q473.4531,690.1484 474.6875,690.1484 Q475.4219,690.1484 476.0625,690.3203 Q476.7188,690.4766 477.2656,690.8359 Z " fill="#000000"/><text fill="#000000" font-family="sans-serif" font-size="12" font-style="italic" lengthAdjust="spacing" textLength="76" x="536" y="691.0664">&#171;counterpart&#187;</text><text fill="#000000" font-family="sans-serif" font-size="14" lengthAdjust="spacing" textLength="171" x="488.5" y="708.2363">Central Operations Service</text><line style="stroke:#181818;stroke-width:0.5;" x1="460.5" x2="661.5" y1="716.3125" y2="716.3125"/><line style="stroke:#181818;stroke-width:0.5;" x1="460.5" x2="661.5" y1="724.3125" y2="724.3125"/></g><!--class primaryFeedDataAdapter--><g id="elem_primaryFeedDataAdapter"><rect codeLine="36" fill="#F1F1F1" height="58.7031" id="primaryFeedDataAdapter" rx="2.5" ry="2.5" style="stroke:#181818;stroke-width:0.5;" width="153" x="697.5" y="673.6094"/><ellipse cx="712.5" cy="694.9609" fill="#ADD1B2" rx="11" ry="11" style="stroke:#181818;stroke-width:1.0;"/><path d="M715.2656,690.8359 Q715.4219,690.6172 715.6094,690.5078 Q715.7969,690.3984 716.0156,690.3984 Q716.3906,690.3984 716.625,690.6641 Q716.8594,690.9141 716.8594,691.5234 L716.8594,692.9766 Q716.8594,693.5859 716.625,693.8516 Q716.3906,694.1172 716.0156,694.1172 Q715.6719,694.1172 715.4688,693.9141 Q715.2656,693.7266 715.1563,693.2109 Q715.1094,692.8516 714.9219,692.6641 Q714.5938,692.2891 713.9844,692.0703 Q713.375,691.8516 712.75,691.8516 Q711.9844,691.8516 711.3438,692.1797 Q710.7188,692.5078 710.2188,693.2578 Q709.7344,694.0078 709.7344,695.0391 L709.7344,696.1328 Q709.7344,697.3672 710.625,698.1953 Q711.5156,699.0078 713.1094,699.0078 Q714.0469,699.0078 714.7031,698.7578 Q715.0938,698.6016 715.5156,698.1641 Q715.7813,697.8984 715.9219,697.8203 Q716.0781,697.7422 716.2813,697.7422 Q716.6094,697.7422 716.8594,698.0078 Q717.125,698.2578 717.125,698.6016 Q717.125,698.9453 716.7813,699.3516 Q716.2813,699.9297 715.4844,700.2578 Q714.4063,700.7109 713.1094,700.7109 Q711.5938,700.7109 710.3906,700.0859 Q709.4063,699.5859 708.7188,698.5234 Q708.0313,697.4453 708.0313,696.1641 L708.0313,695.0078 Q708.0313,693.6797 708.6406,692.5391 Q709.2656,691.3828 710.3594,690.7734 Q711.4531,690.1484 712.6875,690.1484 Q713.4219,690.1484 714.0625,690.3203 Q714.7188,690.4766 715.2656,690.8359 Z " fill="#000000"/><text fill="#000000" font-family="sans-serif" font-size="12" font-style="italic" lengthAdjust="spacing" textLength="76" x="749" y="691.0664">&#171;counterpart&#187;</text><text fill="#000000" font-family="sans-serif" font-size="14" lengthAdjust="spacing" textLength="121" x="726.5" y="708.2363">Feed Data Adapter</text><line style="stroke:#181818;stroke-width:0.5;" x1="698.5" x2="849.5" y1="716.3125" y2="716.3125"/><line style="stroke:#181818;stroke-width:0.5;" x1="698.5" x2="849.5" y1="724.3125" y2="724.3125"/></g><!--class primaryArchiverService--><g id="elem_primaryArchiverService"><rect codeLine="37" fill="#F1F1F1" height="58.7031" id="primaryArchiverService" rx="2.5" ry="2.5" style="stroke:#181818;stroke-width:0.5;" width="135" x="1103.5" y="673.6094"/><ellipse cx="1118.5" cy="694.9609" fill="#ADD1B2" rx="11" ry="11" style="stroke:#181818;stroke-width:1.0;"/><path d="M1121.2656,690.8359 Q1121.4219,690.6172 1121.6094,690.5078 Q1121.7969,690.3984 1122.0156,690.3984 Q1122.3906,690.3984 1122.625,690.6641 Q1122.8594,690.9141 1122.8594,691.5234 L1122.8594,692.9766 Q1122.8594,693.5859 1122.625,693.8516 Q1122.3906,694.1172 1122.0156,694.1172 Q1121.6719,694.1172 1121.4688,693.9141 Q1121.2656,693.7266 1121.1563,693.2109 Q1121.1094,692.8516 1120.9219,692.6641 Q1120.5938,692.2891 1119.9844,692.0703 Q1119.375,691.8516 1118.75,691.8516 Q1117.9844,691.8516 1117.3438,692.1797 Q1116.7188,692.5078 1116.2188,693.2578 Q1115.7344,694.0078 1115.7344,695.0391 L1115.7344,696.1328 Q1115.7344,697.3672 1116.625,698.1953 Q1117.5156,699.0078 1119.1094,699.0078 Q1120.0469,699.0078 1120.7031,698.7578 Q1121.0938,698.6016 1121.5156,698.1641 Q1121.7813,697.8984 1121.9219,697.8203 Q1122.0781,697.7422 1122.2813,697.7422 Q1122.6094,697.7422 1122.8594,698.0078 Q1123.125,698.2578 1123.125,698.6016 Q1123.125,698.9453 1122.7813,699.3516 Q1122.2813,699.9297 1121.4844,700.2578 Q1120.4063,700.7109 1119.1094,700.7109 Q1117.5938,700.7109 1116.3906,700.0859 Q1115.4063,699.5859 1114.7188,698.5234 Q1114.0313,697.4453 1114.0313,696.1641 L1114.0313,695.0078 Q1114.0313,693.6797 1114.6406,692.5391 Q1115.2656,691.3828 1116.3594,690.7734 Q1117.4531,690.1484 1118.6875,690.1484 Q1119.4219,690.1484 1120.0625,690.3203 Q1120.7188,690.4766 1121.2656,690.8359 Z " fill="#000000"/><text fill="#000000" font-family="sans-serif" font-size="12" font-style="italic" lengthAdjust="spacing" textLength="76" x="1146" y="691.0664">&#171;counterpart&#187;</text><text fill="#000000" font-family="sans-serif" font-size="14" lengthAdjust="spacing" textLength="103" x="1132.5" y="708.2363">Archiver Service</text><line style="stroke:#181818;stroke-width:0.5;" x1="1104.5" x2="1237.5" y1="716.3125" y2="716.3125"/><line style="stroke:#181818;stroke-width:0.5;" x1="1104.5" x2="1237.5" y1="724.3125" y2="724.3125"/></g><!--class existingIotGateway--><g id="elem_existingIotGateway"><rect codeLine="40" fill="#F1F1F1" height="58.7031" id="existingIotGateway" rx="2.5" ry="2.5" style="stroke:#181818;stroke-width:0.5;" width="163" x="1325.5" y="504.1094"/><ellipse cx="1340.5" cy="525.4609" fill="#ADD1B2" rx="11" ry="11" style="stroke:#181818;stroke-width:1.0;"/><path d="M1343.2656,521.3359 Q1343.4219,521.1172 1343.6094,521.0078 Q1343.7969,520.8984 1344.0156,520.8984 Q1344.3906,520.8984 1344.625,521.1641 Q1344.8594,521.4141 1344.8594,522.0234 L1344.8594,523.4766 Q1344.8594,524.0859 1344.625,524.3516 Q1344.3906,524.6172 1344.0156,524.6172 Q1343.6719,524.6172 1343.4688,524.4141 Q1343.2656,524.2266 1343.1563,523.7109 Q1343.1094,523.3516 1342.9219,523.1641 Q1342.5938,522.7891 1341.9844,522.5703 Q1341.375,522.3516 1340.75,522.3516 Q1339.9844,522.3516 1339.3438,522.6797 Q1338.7188,523.0078 1338.2188,523.7578 Q1337.7344,524.5078 1337.7344,525.5391 L1337.7344,526.6328 Q1337.7344,527.8672 1338.625,528.6953 Q1339.5156,529.5078 1341.1094,529.5078 Q1342.0469,529.5078 1342.7031,529.2578 Q1343.0938,529.1016 1343.5156,528.6641 Q1343.7813,528.3984 1343.9219,528.3203 Q1344.0781,528.2422 1344.2813,528.2422 Q1344.6094,528.2422 1344.8594,528.5078 Q1345.125,528.7578 1345.125,529.1016 Q1345.125,529.4453 1344.7813,529.8516 Q1344.2813,530.4297 1343.4844,530.7578 Q1342.4063,531.2109 1341.1094,531.2109 Q1339.5938,531.2109 1338.3906,530.5859 Q1337.4063,530.0859 1336.7188,529.0234 Q1336.0313,527.9453 1336.0313,526.6641 L1336.0313,525.5078 Q1336.0313,524.1797 1336.6406,523.0391 Q1337.2656,521.8828 1338.3594,521.2734 Q1339.4531,520.6484 1340.6875,520.6484 Q1341.4219,520.6484 1342.0625,520.8203 Q1342.7188,520.9766 1343.2656,521.3359 Z " fill="#000000"/><text fill="#000000" font-family="sans-serif" font-size="12" font-style="italic" lengthAdjust="spacing" textLength="100" x="1370" y="521.5664">&#171;external system&#187;</text><text fill="#000000" font-family="sans-serif" font-size="14" lengthAdjust="spacing" textLength="131" x="1354.5" y="538.7363">Existing IoT Gateway</text><line style="stroke:#181818;stroke-width:0.5;" x1="1326.5" x2="1487.5" y1="546.8125" y2="546.8125"/><line style="stroke:#181818;stroke-width:0.5;" x1="1326.5" x2="1487.5" y1="554.8125" y2="554.8125"/></g><!--class timescaleDb--><g id="elem_timescaleDb"><rect codeLine="41" fill="#F1F1F1" height="58.7031" id="timescaleDb" rx="2.5" ry="2.5" style="stroke:#181818;stroke-width:0.5;" width="141" x="77.5" y="673.6094"/><ellipse cx="92.5" cy="694.9609" fill="#ADD1B2" rx="11" ry="11" style="stroke:#181818;stroke-width:1.0;"/><path d="M95.2656,690.8359 Q95.4219,690.6172 95.6094,690.5078 Q95.7969,690.3984 96.0156,690.3984 Q96.3906,690.3984 96.625,690.6641 Q96.8594,690.9141 96.8594,691.5234 L96.8594,692.9766 Q96.8594,693.5859 96.625,693.8516 Q96.3906,694.1172 96.0156,694.1172 Q95.6719,694.1172 95.4688,693.9141 Q95.2656,693.7266 95.1563,693.2109 Q95.1094,692.8516 94.9219,692.6641 Q94.5938,692.2891 93.9844,692.0703 Q93.375,691.8516 92.75,691.8516 Q91.9844,691.8516 91.3438,692.1797 Q90.7188,692.5078 90.2188,693.2578 Q89.7344,694.0078 89.7344,695.0391 L89.7344,696.1328 Q89.7344,697.3672 90.625,698.1953 Q91.5156,699.0078 93.1094,699.0078 Q94.0469,699.0078 94.7031,698.7578 Q95.0938,698.6016 95.5156,698.1641 Q95.7813,697.8984 95.9219,697.8203 Q96.0781,697.7422 96.2813,697.7422 Q96.6094,697.7422 96.8594,698.0078 Q97.125,698.2578 97.125,698.6016 Q97.125,698.9453 96.7813,699.3516 Q96.2813,699.9297 95.4844,700.2578 Q94.4063,700.7109 93.1094,700.7109 Q91.5938,700.7109 90.3906,700.0859 Q89.4063,699.5859 88.7188,698.5234 Q88.0313,697.4453 88.0313,696.1641 L88.0313,695.0078 Q88.0313,693.6797 88.6406,692.5391 Q89.2656,691.3828 90.3594,690.7734 Q91.4531,690.1484 92.6875,690.1484 Q93.4219,690.1484 94.0625,690.3203 Q94.7188,690.4766 95.2656,690.8359 Z " fill="#000000"/><text fill="#000000" font-family="sans-serif" font-size="12" font-style="italic" lengthAdjust="spacing" textLength="113" x="104.5" y="691.0664">&#171;external database&#187;</text><text fill="#000000" font-family="sans-serif" font-size="14" lengthAdjust="spacing" textLength="83" x="119.5" y="708.2363">TimescaleDB</text><line style="stroke:#181818;stroke-width:0.5;" x1="78.5" x2="217.5" y1="716.3125" y2="716.3125"/><line style="stroke:#181818;stroke-width:0.5;" x1="78.5" x2="217.5" y1="724.3125" y2="724.3125"/></g><!--class dedicatedKafka--><g id="elem_dedicatedKafka"><rect codeLine="42" fill="#F1F1F1" height="58.7031" id="dedicatedKafka" rx="2.5" ry="2.5" style="stroke:#181818;stroke-width:0.5;" width="136" x="984" y="182.6094"/><ellipse cx="999" cy="203.9609" fill="#ADD1B2" rx="11" ry="11" style="stroke:#181818;stroke-width:1.0;"/><path d="M1001.7656,199.8359 Q1001.9219,199.6172 1002.1094,199.5078 Q1002.2969,199.3984 1002.5156,199.3984 Q1002.8906,199.3984 1003.125,199.6641 Q1003.3594,199.9141 1003.3594,200.5234 L1003.3594,201.9766 Q1003.3594,202.5859 1003.125,202.8516 Q1002.8906,203.1172 1002.5156,203.1172 Q1002.1719,203.1172 1001.9688,202.9141 Q1001.7656,202.7266 1001.6563,202.2109 Q1001.6094,201.8516 1001.4219,201.6641 Q1001.0938,201.2891 1000.4844,201.0703 Q999.875,200.8516 999.25,200.8516 Q998.4844,200.8516 997.8438,201.1797 Q997.2188,201.5078 996.7188,202.2578 Q996.2344,203.0078 996.2344,204.0391 L996.2344,205.1328 Q996.2344,206.3672 997.125,207.1953 Q998.0156,208.0078 999.6094,208.0078 Q1000.5469,208.0078 1001.2031,207.7578 Q1001.5938,207.6016 1002.0156,207.1641 Q1002.2813,206.8984 1002.4219,206.8203 Q1002.5781,206.7422 1002.7813,206.7422 Q1003.1094,206.7422 1003.3594,207.0078 Q1003.625,207.2578 1003.625,207.6016 Q1003.625,207.9453 1003.2813,208.3516 Q1002.7813,208.9297 1001.9844,209.2578 Q1000.9063,209.7109 999.6094,209.7109 Q998.0938,209.7109 996.8906,209.0859 Q995.9063,208.5859 995.2188,207.5234 Q994.5313,206.4453 994.5313,205.1641 L994.5313,204.0078 Q994.5313,202.6797 995.1406,201.5391 Q995.7656,200.3828 996.8594,199.7734 Q997.9531,199.1484 999.1875,199.1484 Q999.9219,199.1484 1000.5625,199.3203 Q1001.2188,199.4766 1001.7656,199.8359 Z " fill="#000000"/><text fill="#000000" font-family="sans-serif" font-size="12" font-style="italic" lengthAdjust="spacing" textLength="49" x="1040.5" y="200.0664">&#171;queue&#187;</text><text fill="#000000" font-family="sans-serif" font-size="14" lengthAdjust="spacing" textLength="104" x="1013" y="217.2363">Dedicated Kafka</text><line style="stroke:#181818;stroke-width:0.5;" x1="985" x2="1119" y1="225.3125" y2="225.3125"/><line style="stroke:#181818;stroke-width:0.5;" x1="985" x2="1119" y1="233.3125" y2="233.3125"/></g><!--class existingS3DataLake--><g id="elem_existingS3DataLake"><rect codeLine="43" fill="#F1F1F1" height="58.7031" id="existingS3DataLake" rx="2.5" ry="2.5" style="stroke:#181818;stroke-width:0.5;" width="170" x="1684" y="504.1094"/><ellipse cx="1699" cy="525.4609" fill="#ADD1B2" rx="11" ry="11" style="stroke:#181818;stroke-width:1.0;"/><path d="M1701.7656,521.3359 Q1701.9219,521.1172 1702.1094,521.0078 Q1702.2969,520.8984 1702.5156,520.8984 Q1702.8906,520.8984 1703.125,521.1641 Q1703.3594,521.4141 1703.3594,522.0234 L1703.3594,523.4766 Q1703.3594,524.0859 1703.125,524.3516 Q1702.8906,524.6172 1702.5156,524.6172 Q1702.1719,524.6172 1701.9688,524.4141 Q1701.7656,524.2266 1701.6563,523.7109 Q1701.6094,523.3516 1701.4219,523.1641 Q1701.0938,522.7891 1700.4844,522.5703 Q1699.875,522.3516 1699.25,522.3516 Q1698.4844,522.3516 1697.8438,522.6797 Q1697.2188,523.0078 1696.7188,523.7578 Q1696.2344,524.5078 1696.2344,525.5391 L1696.2344,526.6328 Q1696.2344,527.8672 1697.125,528.6953 Q1698.0156,529.5078 1699.6094,529.5078 Q1700.5469,529.5078 1701.2031,529.2578 Q1701.5938,529.1016 1702.0156,528.6641 Q1702.2813,528.3984 1702.4219,528.3203 Q1702.5781,528.2422 1702.7813,528.2422 Q1703.1094,528.2422 1703.3594,528.5078 Q1703.625,528.7578 1703.625,529.1016 Q1703.625,529.4453 1703.2813,529.8516 Q1702.7813,530.4297 1701.9844,530.7578 Q1700.9063,531.2109 1699.6094,531.2109 Q1698.0938,531.2109 1696.8906,530.5859 Q1695.9063,530.0859 1695.2188,529.0234 Q1694.5313,527.9453 1694.5313,526.6641 L1694.5313,525.5078 Q1694.5313,524.1797 1695.1406,523.0391 Q1695.7656,521.8828 1696.8594,521.2734 Q1697.9531,520.6484 1699.1875,520.6484 Q1699.9219,520.6484 1700.5625,520.8203 Q1701.2188,520.9766 1701.7656,521.3359 Z " fill="#000000"/><text fill="#000000" font-family="sans-serif" font-size="12" font-style="italic" lengthAdjust="spacing" textLength="102" x="1731" y="521.5664">&#171;external storage&#187;</text><text fill="#000000" font-family="sans-serif" font-size="14" lengthAdjust="spacing" textLength="138" x="1713" y="538.7363">Existing S3 Data Lake</text><line style="stroke:#181818;stroke-width:0.5;" x1="1685" x2="1853" y1="546.8125" y2="546.8125"/><line style="stroke:#181818;stroke-width:0.5;" x1="1685" x2="1853" y1="554.8125" y2="554.8125"/></g><!--class localSynchronizationService--><g id="elem_localSynchronizationService"><rect codeLine="44" fill="#F1F1F1" height="58.7031" id="localSynchronizationService" rx="2.5" ry="2.5" style="stroke:#181818;stroke-width:0.5;" width="221" x="941.5" y="45.6094"/><ellipse cx="956.5" cy="66.9609" fill="#ADD1B2" rx="11" ry="11" style="stroke:#181818;stroke-width:1.0;"/><path d="M959.2656,62.8359 Q959.4219,62.6172 959.6094,62.5078 Q959.7969,62.3984 960.0156,62.3984 Q960.3906,62.3984 960.625,62.6641 Q960.8594,62.9141 960.8594,63.5234 L960.8594,64.9766 Q960.8594,65.5859 960.625,65.8516 Q960.3906,66.1172 960.0156,66.1172 Q959.6719,66.1172 959.4688,65.9141 Q959.2656,65.7266 959.1563,65.2109 Q959.1094,64.8516 958.9219,64.6641 Q958.5938,64.2891 957.9844,64.0703 Q957.375,63.8516 956.75,63.8516 Q955.9844,63.8516 955.3438,64.1797 Q954.7188,64.5078 954.2188,65.2578 Q953.7344,66.0078 953.7344,67.0391 L953.7344,68.1328 Q953.7344,69.3672 954.625,70.1953 Q955.5156,71.0078 957.1094,71.0078 Q958.0469,71.0078 958.7031,70.7578 Q959.0938,70.6016 959.5156,70.1641 Q959.7813,69.8984 959.9219,69.8203 Q960.0781,69.7422 960.2813,69.7422 Q960.6094,69.7422 960.8594,70.0078 Q961.125,70.2578 961.125,70.6016 Q961.125,70.9453 960.7813,71.3516 Q960.2813,71.9297 959.4844,72.2578 Q958.4063,72.7109 957.1094,72.7109 Q955.5938,72.7109 954.3906,72.0859 Q953.4063,71.5859 952.7188,70.5234 Q952.0313,69.4453 952.0313,68.1641 L952.0313,67.0078 Q952.0313,65.6797 952.6406,64.5391 Q953.2656,63.3828 954.3594,62.7734 Q955.4531,62.1484 956.6875,62.1484 Q957.4219,62.1484 958.0625,62.3203 Q958.7188,62.4766 959.2656,62.8359 Z " fill="#000000"/><text fill="#000000" font-family="sans-serif" font-size="12" font-style="italic" lengthAdjust="spacing" textLength="76" x="1027" y="63.0664">&#171;counterpart&#187;</text><text fill="#000000" font-family="sans-serif" font-size="14" lengthAdjust="spacing" textLength="189" x="970.5" y="80.2363">Local Synchronization Service</text><line style="stroke:#181818;stroke-width:0.5;" x1="942.5" x2="1161.5" y1="88.3125" y2="88.3125"/><line style="stroke:#181818;stroke-width:0.5;" x1="942.5" x2="1161.5" y1="96.3125" y2="96.3125"/></g><!--link iotGatewayAdapter to existingIotGateway--><g id="link_iotGatewayAdapter_existingIotGateway"><path codeLine="46" d="M1047.54,416.2294 C1124.15,437.7994 1222.58,466.6694 1309,495.6094 C1316.85,498.2394 1319.3578,499.0584 1327.4578,501.9884 " fill="none" id="iotGatewayAdapter-to-existingIotGateway" style="stroke:#181818;stroke-width:1.0;"/><polygon fill="#181818" points="1333.1,504.0294,1325.9973,497.2065,1328.3982,502.3286,1323.2761,504.7294,1333.1,504.0294" style="stroke:#181818;stroke-width:1.0;"/><text fill="#000000" font-family="sans-serif" font-size="13" lengthAdjust="spacing" textLength="90" x="1213" y="462.1045">&#1089;&#1080;&#1085;&#1093;&#1088;&#1086;&#1085;&#1080;&#1079;&#1072;&#1094;&#1080;&#1103;</text></g><!--link timescaleAdapter to timescaleDb--><g id="link_timescaleAdapter_timescaleDb"><path codeLine="47" d="M228.23,571.7494 C217.51,581.4094 206.74,592.3094 198,603.6094 C181.46,624.9994 170.3245,647.1906 161.5445,667.7706 " fill="none" id="timescaleAdapter-to-timescaleDb" style="stroke:#181818;stroke-width:1.0;"/><polygon fill="#181818" points="159.19,673.2894,166.4008,666.5809,161.152,668.6904,159.0425,663.4416,159.19,673.2894" style="stroke:#181818;stroke-width:1.0;"/><text fill="#000000" font-family="sans-serif" font-size="13" lengthAdjust="spacing" textLength="96" x="199" y="618.1045">&#1095;&#1090;&#1077;&#1085;&#1080;&#1077; &#1080; &#1079;&#1072;&#1087;&#1080;&#1089;&#1100;</text></g><!--link operationsService to timescaleAdapter--><g id="link_operationsService_timescaleAdapter"><path codeLine="48" d="M301.29,417.7294 C290.05,425.9194 280.08,435.7794 273,447.6094 C264.58,461.6694 263.2462,473.5708 265.3162,489.2808 " fill="none" id="operationsService-to-timescaleAdapter" style="stroke:#181818;stroke-width:1.0;"/><polygon fill="#181818" points="266.1,495.2294,268.89,485.784,265.4468,490.2722,260.9586,486.829,266.1,495.2294" style="stroke:#181818;stroke-width:1.0;"/><text fill="#000000" font-family="sans-serif" font-size="13" lengthAdjust="spacing" textLength="135" x="274" y="462.1045">&#1086;&#1087;&#1077;&#1088;&#1072;&#1094;&#1080;&#1086;&#1085;&#1085;&#1099;&#1077; &#1076;&#1072;&#1085;&#1085;&#1099;&#1077;</text></g><!--link feedDataAdapter to timescaleAdapter--><g id="link_feedDataAdapter_timescaleAdapter"><path codeLine="49" d="M582.64,413.3994 C518.32,438.4094 435.5621,470.575 370.2121,495.985 " fill="none" id="feedDataAdapter-to-timescaleAdapter" style="stroke:#181818;stroke-width:1.0;"/><polygon fill="#181818" points="364.62,498.1594,374.4578,498.6259,369.2801,496.3474,371.5586,491.1697,364.62,498.1594" style="stroke:#181818;stroke-width:1.0;"/><text fill="#000000" font-family="sans-serif" font-size="13" lengthAdjust="spacing" textLength="96" x="485" y="462.1045">&#1076;&#1072;&#1085;&#1085;&#1099;&#1077; &#1086; &#1082;&#1086;&#1088;&#1084;&#1077;</text></g><!--link metricsDataAdapter to timescaleAdapter--><g id="link_metricsDataAdapter_timescaleAdapter"><path codeLine="50" d="M121.17,417.6194 C124.17,433.8094 129.94,452.1394 141,465.6094 C153.37,480.6794 164.6966,489.7874 182.0166,499.1874 " fill="none" id="metricsDataAdapter-to-timescaleAdapter" style="stroke:#181818;stroke-width:1.0;"/><polygon fill="#181818" points="187.29,502.0494,181.2879,494.2407,182.8955,499.6644,177.4719,501.272,187.29,502.0494" style="stroke:#181818;stroke-width:1.0;"/><text fill="#000000" font-family="sans-serif" font-size="13" lengthAdjust="spacing" textLength="116" x="142" y="462.1045">&#1076;&#1072;&#1085;&#1085;&#1099;&#1077; &#1076;&#1083;&#1103; &#1084;&#1077;&#1090;&#1088;&#1080;&#1082;</text></g><!--link localSynchronizationService to dedicatedKafka--><g id="link_localSynchronizationService_dedicatedKafka"><path codeLine="51" d="M1052,104.7394 C1052,127.6494 1052,153.6194 1052,176.5194 " fill="none" id="localSynchronizationService-to-dedicatedKafka" style="stroke:#181818;stroke-width:1.0;"/><polygon fill="#181818" points="1052,182.5194,1056,173.5194,1052,177.5194,1048,173.5194,1052,182.5194" style="stroke:#181818;stroke-width:1.0;"/><text fill="#000000" font-family="sans-serif" font-size="13" lengthAdjust="spacing" textLength="69" x="1053" y="149.1045">&#1087;&#1091;&#1073;&#1083;&#1080;&#1082;&#1072;&#1094;&#1080;&#1103;</text></g><!--link dedicatedKafka to iotGatewayAdapter--><g id="link_dedicatedKafka_iotGatewayAdapter"><path codeLine="52" d="M1012.24,241.8594 C1001.42,250.7094 990.17,260.9494 981,271.6094 C962.79,292.7794 949.5007,314.4838 938.0007,336.0738 " fill="none" id="dedicatedKafka-to-iotGatewayAdapter" style="stroke:#181818;stroke-width:1.0;"/><polygon fill="#181818" points="935.18,341.3694,942.9415,335.3064,937.5306,336.9564,935.8807,331.5455,935.18,341.3694" style="stroke:#181818;stroke-width:1.0;"/><text fill="#000000" font-family="sans-serif" font-size="13" lengthAdjust="spacing" textLength="139" x="982" y="286.1045">&#1076;&#1072;&#1085;&#1085;&#1099;&#1077; &#1089;&#1080;&#1085;&#1093;&#1088;&#1086;&#1085;&#1080;&#1079;&#1072;&#1094;&#1080;&#1080;</text></g><!--link dedicatedKafka to archiverService--><g id="link_dedicatedKafka_archiverService"><path codeLine="53" d="M1093.98,241.8494 C1105.14,250.6294 1116.67,260.8394 1126,271.6094 C1144.2,292.6294 1157.1313,314.4207 1168.1513,336.1007 " fill="none" id="dedicatedKafka-to-archiverService" style="stroke:#181818;stroke-width:1.0;"/><polygon fill="#181818" points="1170.87,341.4494,1170.3577,331.6139,1168.6044,336.9921,1163.2261,335.2389,1170.87,341.4494" style="stroke:#181818;stroke-width:1.0;"/><text fill="#000000" font-family="sans-serif" font-size="13" lengthAdjust="spacing" textLength="104" x="1139" y="286.1045">&#1093;&#1086;&#1083;&#1086;&#1076;&#1085;&#1099;&#1077; &#1079;&#1072;&#1087;&#1080;&#1089;&#1080;</text></g><!--link archiverService to existingS3DataLake--><g id="link_archiverService_existingS3DataLake"><path codeLine="54" d="M1293.42,390.6794 C1374.46,400.2594 1488.51,417.7594 1585,447.6094 C1631.22,461.9094 1675.5403,482.6136 1711.6103,501.2636 " fill="none" id="archiverService-to-existingS3DataLake" style="stroke:#181818;stroke-width:1.0;"/><polygon fill="#181818" points="1716.94,504.0194,1710.7826,496.3326,1712.4986,501.7229,1707.1083,503.4389,1716.94,504.0194" style="stroke:#181818;stroke-width:1.0;"/><text fill="#000000" font-family="sans-serif" font-size="13" lengthAdjust="spacing" textLength="44" x="1632" y="462.1045">&#1072;&#1088;&#1093;&#1080;&#1074;&#1099;</text></g><!--link iotGatewayAdapter to synchronizationService--><g id="link_iotGatewayAdapter_synchronizationService"><path codeLine="56" d="M923.94,417.7994 C936.03,482.5994 959.6087,608.9313 970.5187,667.3613 " fill="none" id="iotGatewayAdapter-to-synchronizationService" style="stroke:#181818;stroke-width:1.0;stroke-dasharray:7.0,7.0;"/><polygon fill="#181818" points="971.62,673.2594,973.9001,663.6781,970.7023,668.3443,966.036,665.1465,971.62,673.2594" style="stroke:#181818;stroke-width:1.0;"/><text fill="#000000" font-family="sans-serif" font-size="13" lengthAdjust="spacing" textLength="43" x="957" y="539.1045">&#1079;&#1072;&#1084;&#1077;&#1085;&#1072;</text></g><!--link timescaleAdapter to centralStoreAdapter--><g id="link_timescaleAdapter_centralStoreAdapter"><path codeLine="57" d="M289.98,571.7794 C301.51,602.4294 315.518,639.6634 326.078,667.7434 " fill="none" id="timescaleAdapter-to-centralStoreAdapter" style="stroke:#181818;stroke-width:1.0;stroke-dasharray:7.0,7.0;"/><polygon fill="#181818" points="328.19,673.3594,328.766,663.5274,326.43,668.6794,321.278,666.3434,328.19,673.3594" style="stroke:#181818;stroke-width:1.0;"/><text fill="#000000" font-family="sans-serif" font-size="13" lengthAdjust="spacing" textLength="43" x="309" y="618.1045">&#1079;&#1072;&#1084;&#1077;&#1085;&#1072;</text></g><!--link operationsService to primaryOperationsService--><g id="link_operationsService_primaryOperationsService"><path codeLine="58" d="M521.1,417.7794 C533.14,425.8594 543.88,435.6794 552,447.6094 C599.16,516.8594 582.8599,617.2123 570.4699,667.7023 " fill="none" id="operationsService-to-primaryOperationsService" style="stroke:#181818;stroke-width:1.0;stroke-dasharray:7.0,7.0;"/><polygon fill="#181818" points="569.04,673.5294,575.0697,665.742,570.2316,668.6734,567.3002,663.8354,569.04,673.5294" style="stroke:#181818;stroke-width:1.0;"/><text fill="#000000" font-family="sans-serif" font-size="13" lengthAdjust="spacing" textLength="88" x="584" y="539.1045">&#1073;&#1077;&#1079; &#1080;&#1079;&#1084;&#1077;&#1085;&#1077;&#1085;&#1080;&#1081;</text></g><!--link feedDataAdapter to primaryFeedDataAdapter--><g id="link_feedDataAdapter_primaryFeedDataAdapter"><path codeLine="59" d="M679.38,417.7994 C700.94,482.5994 743.055,609.1365 762.505,667.5665 " fill="none" id="feedDataAdapter-to-primaryFeedDataAdapter" style="stroke:#181818;stroke-width:1.0;stroke-dasharray:7.0,7.0;"/><polygon fill="#181818" points="764.4,673.2594,765.3527,663.4567,762.8208,668.5153,757.7622,665.9834,764.4,673.2594" style="stroke:#181818;stroke-width:1.0;"/><text fill="#000000" font-family="sans-serif" font-size="13" lengthAdjust="spacing" textLength="102" x="740" y="539.1045">&#1080;&#1089;&#1090;&#1086;&#1095;&#1085;&#1080;&#1082; &#1076;&#1072;&#1085;&#1085;&#1099;&#1093;</text></g><!--link archiverService to primaryArchiverService--><g id="link_archiverService_primaryArchiverService"><path codeLine="60" d="M1293.3,388.2394 C1366.16,399.6494 1458.28,427.6094 1506,495.6094 C1531.53,531.9894 1532.24,559.7394 1506,595.6094 C1474.21,639.0794 1332.9017,672.0944 1244.5517,689.1144 " fill="none" id="archiverService-to-primaryArchiverService" style="stroke:#181818;stroke-width:1.0;stroke-dasharray:7.0,7.0;"/><polygon fill="#181818" points="1238.66,690.2494,1248.2542,692.4747,1243.5697,689.3036,1246.7408,684.6191,1238.66,690.2494" style="stroke:#181818;stroke-width:1.0;"/><text fill="#000000" font-family="sans-serif" font-size="13" lengthAdjust="spacing" textLength="88" x="1526" y="539.1045">&#1073;&#1077;&#1079; &#1080;&#1079;&#1084;&#1077;&#1085;&#1077;&#1085;&#1080;&#1081;</text></g><!--SRC=[fLRBJjj05DtxAqRiWofr5w58AIaLAeXAGTqFpW1M4Zkr7GfKI90qfHM8Tj5LDrKtxJQWH34XZr-O-OL-IS-CdSHFe2qIuDoPU-RClUSUnpNS6YERhr_bn1dtn9beyJuVyIx1nnlkyJ6VYFUyBqxvYFm-_Khu5tudBkKkXCQyYoSF6yVYWjyIF7GHzdWNWPRQlsfLcAOvLSDiK9lMYLwZZbDqNTlOQRfiNRVCid7Co1DDQr2zIlSOMSew0a-V2Vy9VW37KbTkcuMd_4xk1DU9vCgxIuGwXDPSPflKDGxOAZDTczR8EutWHz4WIyyF3SSrp3soRcsJ5zHbR-aHALPe0saAmB3S81n4oSeAzPyAXG1B_e1p3uIcagiu5MrmRn7-GxJ59ppAgjxW-GgVFDG9f-N4Hz2_uWC5SQA5MMqRTURejCPApo9at5dy7xY4C5DEd1Ldgy5iLCio7L9cze6XCtMmDGy7KNboer4pT1KbZX-DilZ69weNFQMYK5McM92T6-3_ZMflNpNyZ0-njG_bYG-ooO6Ml1I-QunLI8cwD5AVNKHby87o_0AP5WgaoCXAZPLy-uHF22Zu-kcddBh985lTIHvSznV-w-mUQW0TZ-IIklSmXK7HrlUXPJlI7He45xtvktwWpAAZHWn1loTomxm49-7P_8uDGsmOXBYZSn8Q6bVabTg1XTjCi3HMaFBlIBHZ5Y7QwWQwrJHHAZY4wqG7j7nawlksPHh7ljB2ztQYQulhX-0AXJIPbrtBPf4EwlwAMbYqy46WZ7bfs4QTsaTRAMEJ2PakwG1fBQ7iJ9nKYGGmnOHIeZ3ez3t6g91OiB0-DqQWi4DbipMqn75P7KX99uiwM6add5R1rNQemnQ99LQHveAIlAIxLQgIAxEO2Y7_JPCrGpbppkMdVY4tQ9L5I9UVohWCHqYZwH3t0cZ3qgL8xf5UJUueFqv_Ml8TaiiLqWgPbvE4uHGTDOTo1Z5cC4FCafOmVmaIhYUopvMNgjabt2DgIAVghNwf9Jqy0Z13pMDeaIDVlUfanMDkKVEPr-9UcmMMxQyfflaea1IZlAyT4ZEc721EONxN-ChWIJCBAXpR9HEJhOknoMeOtbefS76dHiiwycM8tzxiUlEU0IA-FwoRa9Rp8GyN5sc2MrukPDbbtZzovBznapAJgMdk6CjBoaicPXeXig-HEI2gP3w8hzpRXBH2G74V18p_dNKYpbNsCDGUqKaKC0HLJFGYcz4V]--></g></svg>